mtllib D:\XNALara XPS\data\! Foodstuffs\! Drinks - canned drinks\Canned soda - Sprite (GMOD)\sodacan.mtl
g Model001_5_Material55_1.0_0.0_0.0
usemtl Model001_Material001
v -0.0380714 0.0866123 0.0123692
vn -0.2906078 0.7723286 -0.5648502
vt 0.0798 0.9864
v -0.0380714 0.0866123 -0.0123692
vn -0.3564619 0.8168569 0.4535193
vt 0.0001 0.9864
v -0.0380714 0.0822546 -0.0123692
vn -0.9313693 0.1970215 -0.3061596
vt 0.0001 1.001
v -0.0380714 0.0822546 0.0123692
vn -0.9283669 0.2099245 0.3067028
vt 0.0798 1.001
v -0.0235297 0.0866123 0.0323853
vn -0.5671666 0.7722721 -0.2862132
vt 0.157 0.9864
v -0.0235297 0.0822546 0.0323853
vn -0.5707717 0.2099369 0.7938175
vt 0.157 1.001
v 0 0.0866123 0.0400296
vn -0.6271782 0.7721978 0.1017744
vt 0.2302 0.9864
v 0 0.0822546 0.0400296
vn 0.004819848 0.2099425 0.9777018
vt 0.2302 1.001
v 0.0235297 0.0866123 0.0323853
vn -0.4474095 0.7723196 0.4509404
vt 0.3034 0.9864
v 0.0235297 0.0822546 0.0323853
vn 0.5785838 0.2099425 0.7881401
vt 0.3034 1.001
v 0.0380714 0.0866123 0.0123692
vn -0.09689959 0.7723269 0.6277912
vt 0.3806 0.9864
v 0.0380714 0.0822546 0.0123692
vn 0.9313478 0.2099306 0.2975236
vt 0.3806 1.001
v 0.0380714 0.0866123 -0.0123692
vn 0.2906083 0.7723221 0.5648587
vt 0.4603 0.9864
v 0.0380714 0.0822546 -0.0123692
vn 0.9283669 0.2099245 -0.3067028
vt 0.4603 1.001
v 0.0235297 0.0866123 -0.0323853
vn 0.5671666 0.7722721 0.2862132
vt 0.5375 0.9864
v 0.0235297 0.0822546 -0.0323853
vn 0.5707717 0.2099369 -0.7938175
vt 0.5375 1.001
v 0 0.0866123 -0.0400296
vn 0.6271782 0.7721978 -0.1017744
vt 0.6107 0.9864
v 0 0.0822546 -0.0400296
vn -0.004819848 0.2099425 -0.9777018
vt 0.6107 1.001
v -0.0235297 0.0866123 -0.0323853
vn 0.4474154 0.7723153 -0.4509418
vt 0.684 0.9864
v -0.0235297 0.0822546 -0.0323853
vn -0.5785838 0.2099425 -0.7881401
vt 0.684 1.001
v -0.0380714 0.0866123 -0.0123692
vn -0.3252856 0.8219243 0.4675786
vt 0.7611 0.9864
v -0.0380714 0.0822546 -0.0123692
vn -0.9307814 0.2018211 -0.3048183
vt 0.7611 1.001
v -0.046371 0.0628582 0.0150669
vn -0.9310803 0.2106782 0.2978325
vt 0.0798 0.929
v -0.046371 0.0628582 -0.0150669
vn -0.9283329 0.2106722 -0.3062927
vt 0.0001 0.929
v -0.046371 -0.0777083 -0.0150669
vn -0.8848692 -0.3785082 -0.2715475
vt 0.0001 0.03680003
v -0.046371 -0.0777083 0.0150669
vn -0.8754943 -0.3785138 0.3003949
vt 0.0798 0.03680003
v -0.0382091 -0.0866123 -0.0124151
vn -0.4504201 -0.8807425 -0.1463364
vt 0.0001 0.007300019
v -0.0382091 -0.0866123 0.0124151
vn -0.2728123 -0.9525269 0.1351513
vt 0.0798 0.007300019
v -0.02866 -0.0777083 0.0394457
vn -0.5317225 -0.3785109 0.7576283
vt 0.157 0.03680003
v -0.0236164 -0.0866123 0.0325026
vn -0.1412783 -0.9525211 0.2697108
vt 0.157 0.007300019
v 0 -0.0777083 0.0487577
vn 0.01515681 -0.3784817 0.9254847
vt 0.2302 0.03680003
v 0 -0.0866123 0.0401775
vn 0.04423952 -0.9525187 0.3012491
vt 0.2302 0.007300019
v 0.02866 -0.0777083 0.0394457
vn 0.5562676 -0.3784959 0.7398022
vt 0.3034 0.03680003
v 0.0236164 -0.0866123 0.0325026
vn 0.2128555 -0.9525273 0.2176793
vt 0.3034 0.007300019
v 0.046371 -0.0777083 0.0150669
vn 0.884869 -0.3785084 0.2715479
vt 0.3806 0.03680003
v 0.0382091 -0.0866123 0.0124151
vn 0.3001451 -0.9525291 0.05100197
vt 0.3806 0.007300019
v 0.046371 -0.0777083 -0.0150669
vn 0.8754943 -0.3785138 -0.3003949
vt 0.4603 0.03680003
v 0.0382091 -0.0866123 -0.0124151
vn 0.2728123 -0.9525269 -0.1351513
vt 0.4603 0.007300019
v 0.02866 -0.0777083 -0.0394457
vn 0.5317225 -0.3785109 -0.7576283
vt 0.5375 0.03680003
v 0.0236164 -0.0866123 -0.0325026
vn 0.1412783 -0.9525211 -0.2697108
vt 0.5375 0.007300019
v 0 -0.0777083 -0.0487577
vn -0.01515681 -0.3784817 -0.9254847
vt 0.6107 0.03680003
v 0 -0.0866123 -0.0401775
vn -0.04423952 -0.9525187 -0.3012491
vt 0.6107 0.007300019
v -0.02866 -0.0777083 -0.0394457
vn -0.5562676 -0.3784959 -0.7398022
vt 0.684 0.03680003
v -0.0236164 -0.0866123 -0.0325026
vn -0.2128555 -0.9525273 -0.2176793
vt 0.684 0.007300019
v -0.02866 0.0628582 -0.0394457
vn -0.5709967 0.2106849 -0.7934574
vt 0.684 0.929
v 0 0.0628582 -0.0487577
vn 0.004452969 0.2106922 -0.9775423
vt 0.6107 0.929
v 0.02866 0.0628582 -0.0394457
vn 0.5781913 0.2106895 -0.7882289
vt 0.5375 0.929
v 0.046371 0.0628582 -0.0150669
vn 0.9310803 0.2106782 -0.2978325
vt 0.4603 0.929
v 0.046371 0.0628582 0.0150669
vn 0.928333 0.2106722 0.3062922
vt 0.3806 0.929
v 0.02866 0.0628582 0.0394457
vn 0.5709967 0.2106849 0.7934574
vt 0.3034 0.929
v 0 0.0628582 0.0487577
vn -0.004452969 0.2106922 0.9775423
vt 0.2302 0.929
v -0.02866 0.0628582 0.0394457
vn -0.5781913 0.2106895 0.7882289
vt 0.157 0.929
v -0.0380714 0.0822546 -0.0123692
vn -0.9292091 0.2137977 -0.3014315
vt 0.7611 1.001
v -0.0235297 0.0822546 -0.0323853
vn -0.5785838 0.2099425 -0.7881401
vt 0.684 1.001
v -0.046371 0.0628582 -0.0150669
vn -0.9283329 0.2106722 -0.3062927
vt 0.7611 0.929
v -0.046371 -0.0777083 -0.0150669
vn -0.8848692 -0.3785082 -0.2715475
vt 0.7611 0.03680003
v -0.0382091 -0.0866123 -0.0124151
vn -0.4242027 -0.8950185 -0.1378186
vt 0.7611 0.007300019
v -0.0380714 0.0822546 0.0123692
vn -0.9283669 0.2099245 0.3067028
vt 0.0798 1.001
v -0.0380714 0.0822546 -0.0123692
vn -0.9292091 0.2137977 -0.3014315
vt 0.0001 1.001
v -0.0235297 0.0822546 0.0323853
vn -0.5707717 0.2099369 0.7938175
vt 0.157 1.001
v 0 0.0822546 0.0400296
vn 0.004819848 0.2099425 0.9777018
vt 0.2302 1.001
v 0.0235297 0.0822546 0.0323853
vn 0.5785838 0.2099425 0.7881401
vt 0.3034 1.001
v 0.0380714 0.0822546 0.0123692
vn 0.9313478 0.2099306 0.2975236
vt 0.3806 1.001
v 0.0380714 0.0822546 -0.0123692
vn 0.9283669 0.2099245 -0.3067028
vt 0.4603 1.001
v 0.0235297 0.0822546 -0.0323853
vn 0.5707717 0.2099369 -0.7938175
vt 0.5375 1.001
v 0 0.0822546 -0.0400296
vn -0.004819848 0.2099425 -0.9777018
vt 0.6107 1.001
v -0.0380714 0.0866123 -0.0123692
vn -0.2457267 0.8302842 0.5002465
vt 0.7611 0.9864
v -0.0369622 0.0823184 -0.0120097
vn 0.7435661 0.623491 0.2415955
vt 0.7611 1.0012
v -0.0235297 0.0866123 -0.0323853
vn 0.4474154 0.7723153 -0.4509418
vt 0.684 0.9864
v -0.0228438 0.0823184 -0.0314418
vn 0.3023271 0.7939292 0.5275176
vt 0.684 1.0012
v 0 0.0866123 -0.0400296
vn 0.6271782 0.7721978 -0.1017744
vt 0.6107 0.9864
v 0 0.0823184 -0.0388644
vn -0.06546252 0.7938996 0.6045147
vt 0.6107 1.0012
v 0.0235297 0.0866123 -0.0323853
vn 0.5671666 0.7722721 0.2862132
vt 0.5375 0.9864
v 0.0228438 0.0823184 -0.0314418
vn -0.408262 0.7939408 0.4505332
vt 0.5375 1.0012
v 0.0380714 0.0866123 -0.0123692
vn 0.2906083 0.7723221 0.5648587
vt 0.4603 0.9864
v 0.0369622 0.0823184 -0.0120097
vn -0.5951155 0.7939329 0.1245313
vt 0.4603 1.0012
v 0.0380714 0.0866123 0.0123692
vn -0.09689959 0.7723269 0.6277912
vt 0.3806 0.9864
v 0.0369622 0.0823184 0.0120096
vn -0.5546474 0.7939407 -0.249047
vt 0.3806 1.0012
v 0.0235297 0.0866123 0.0323853
vn -0.4474095 0.7723196 0.4509404
vt 0.3034 0.9864
v 0.0228438 0.0823184 0.0314418
vn -0.3023275 0.7939292 -0.5275174
vt 0.3034 1.0012
v 0 0.0866123 0.0400296
vn -0.6271782 0.7721978 0.1017744
vt 0.2302 0.9864
v 0 0.0823184 0.0388644
vn 0.06546252 0.7938996 -0.6045147
vt 0.2302 1.0012
v -0.0235297 0.0866123 0.0323853
vn -0.5671666 0.7722721 -0.2862132
vt 0.157 0.9864
v -0.0228438 0.0823184 0.0314418
vn 0.4082611 0.7939422 -0.4505316
vt 0.157 1.0012
v -0.0380714 0.0866123 0.0123692
vn -0.2906078 0.7723286 -0.5648502
vt 0.0798 0.9864
v -0.0369622 0.0823184 0.0120096
vn 0.595114 0.7939342 -0.1245302
vt 0.0798 1.0012
v -0.0380714 0.0866123 -0.0123692
vn -0.2457267 0.8302842 0.5002465
vt 0.0001 0.9864
v -0.0369622 0.0823184 -0.0120097
vn 0.7187607 0.6548619 0.2335359
vt 0.0001 1.0012
v 0.0236164 -0.0866123 0.0325026
vn 0.2128555 -0.9525273 0.2176793
vt 0.8158 0.588
v 0 -0.0866123 0.0401775
vn 0.04423952 -0.9525187 0.3012491
vt 0.799 0.6945
v 0 -0.0789016 0
vn -2.66027E-09 -1 1.520154E-09
vt 0.8871 0.6945
v 0.0382091 -0.0866123 0.0124151
vn 0.3001451 -0.9525291 0.05100197
vt 0.8599 0.5222
v 0.0382091 -0.0866123 -0.0124151
vn 0.2728123 -0.9525269 -0.1351513
vt 0.9144 0.5222
v 0.0236164 -0.0866123 -0.0325026
vn 0.1412783 -0.9525211 -0.2697108
vt 0.9585 0.588
v 0 -0.0866123 -0.0401775
vn -0.04423952 -0.9525187 -0.3012491
vt 0.9753 0.6945
v -0.0236164 -0.0866123 -0.0325026
vn -0.2128555 -0.9525273 -0.2176793
vt 0.9585 0.801
v -0.0382091 -0.0866123 -0.0124151
vn -0.4242027 -0.8950185 -0.1378186
vt 0.9144 0.8668
v -0.0382091 -0.0866123 0.0124151
vn -0.2728123 -0.9525269 0.1351513
vt 0.8599 0.8668
v -0.0236164 -0.0866123 0.0325026
vn -0.1412783 -0.9525211 0.2697108
vt 0.8158 0.801
v 0 0.0823184 -0.0388644
vn -0.06546252 0.7938996 0.6045147
vt 0.9894 0.315
v -0.0228438 0.0823184 -0.0314418
vn 0.3023271 0.7939292 0.5275176
vt 0.9701 0.4365
v 0 0.0823184 0
vn 0 1 0
vt 0.8887 0.315
v 0.0228438 0.0823184 -0.0314418
vn -0.408262 0.7939408 0.4505332
vt 0.9701 0.1934
v 0.0369622 0.0823184 -0.0120097
vn -0.5951155 0.7939329 0.1245313
vt 0.9198 0.1183
v 0.0369622 0.0823184 0.0120096
vn -0.5546474 0.7939407 -0.249047
vt 0.8576 0.1183
v 0.0228438 0.0823184 0.0314418
vn -0.3023275 0.7939292 -0.5275174
vt 0.8073 0.1934
v 0 0.0823184 0.0388644
vn 0.06546252 0.7938996 -0.6045147
vt 0.7881 0.315
v -0.0228438 0.0823184 0.0314418
vn 0.4082611 0.7939422 -0.4505316
vt 0.8073 0.4365
v -0.0369622 0.0823184 0.0120096
vn 0.595114 0.7939342 -0.1245302
vt 0.8576 0.5117
v -0.0369622 0.0823184 -0.0120097
vn 0.7187607 0.6548619 0.2335359
vt 0.9198 0.5117
f -108/-108/-108 -110/-110/-110 -109/-109/-109
f -108/-108/-108 -107/-107/-107 -110/-110/-110
f -107/-107/-107 -106/-106/-106 -110/-110/-110
f -107/-107/-107 -105/-105/-105 -106/-106/-106
f -105/-105/-105 -104/-104/-104 -106/-106/-106
f -105/-105/-105 -103/-103/-103 -104/-104/-104
f -103/-103/-103 -102/-102/-102 -104/-104/-104
f -103/-103/-103 -101/-101/-101 -102/-102/-102
f -101/-101/-101 -100/-100/-100 -102/-102/-102
f -101/-101/-101 -99/-99/-99 -100/-100/-100
f -99/-99/-99 -98/-98/-98 -100/-100/-100
f -99/-99/-99 -97/-97/-97 -98/-98/-98
f -97/-97/-97 -96/-96/-96 -98/-98/-98
f -97/-97/-97 -95/-95/-95 -96/-96/-96
f -95/-95/-95 -94/-94/-94 -96/-96/-96
f -95/-95/-95 -93/-93/-93 -94/-94/-94
f -93/-93/-93 -92/-92/-92 -94/-94/-94
f -93/-93/-93 -91/-91/-91 -92/-92/-92
f -91/-91/-91 -90/-90/-90 -92/-92/-92
f -91/-91/-91 -89/-89/-89 -90/-90/-90
f -86/-86/-86 -88/-88/-88 -87/-87/-87
f -86/-86/-86 -85/-85/-85 -88/-88/-88
f -84/-84/-84 -85/-85/-85 -86/-86/-86
f -84/-84/-84 -83/-83/-83 -85/-85/-85
f -83/-83/-83 -82/-82/-82 -85/-85/-85
f -83/-83/-83 -81/-81/-81 -82/-82/-82
f -81/-81/-81 -80/-80/-80 -82/-82/-82
f -81/-81/-81 -79/-79/-79 -80/-80/-80
f -79/-79/-79 -78/-78/-78 -80/-80/-80
f -79/-79/-79 -77/-77/-77 -78/-78/-78
f -77/-77/-77 -76/-76/-76 -78/-78/-78
f -77/-77/-77 -75/-75/-75 -76/-76/-76
f -75/-75/-75 -74/-74/-74 -76/-76/-76
f -75/-75/-75 -73/-73/-73 -74/-74/-74
f -73/-73/-73 -72/-72/-72 -74/-74/-74
f -73/-73/-73 -71/-71/-71 -72/-72/-72
f -71/-71/-71 -70/-70/-70 -72/-72/-72
f -71/-71/-71 -69/-69/-69 -70/-70/-70
f -69/-69/-69 -68/-68/-68 -70/-70/-70
f -69/-69/-69 -67/-67/-67 -68/-68/-68
f -70/-70/-70 -68/-68/-68 -66/-66/-66
f -70/-70/-70 -66/-66/-66 -65/-65/-65
f -72/-72/-72 -70/-70/-70 -65/-65/-65
f -72/-72/-72 -65/-65/-65 -64/-64/-64
f -74/-74/-74 -72/-72/-72 -64/-64/-64
f -74/-74/-74 -64/-64/-64 -63/-63/-63
f -76/-76/-76 -74/-74/-74 -63/-63/-63
f -76/-76/-76 -63/-63/-63 -62/-62/-62
f -78/-78/-78 -76/-76/-76 -62/-62/-62
f -78/-78/-78 -62/-62/-62 -61/-61/-61
f -80/-80/-80 -78/-78/-78 -61/-61/-61
f -80/-80/-80 -61/-61/-61 -60/-60/-60
f -82/-82/-82 -80/-80/-80 -60/-60/-60
f -82/-82/-82 -60/-60/-60 -59/-59/-59
f -85/-85/-85 -82/-82/-82 -59/-59/-59
f -85/-85/-85 -59/-59/-59 -88/-88/-88
f -66/-66/-66 -58/-58/-58 -57/-57/-57
f -66/-66/-66 -56/-56/-56 -58/-58/-58
f -68/-68/-68 -56/-56/-56 -66/-66/-66
f -68/-68/-68 -55/-55/-55 -56/-56/-56
f -67/-67/-67 -55/-55/-55 -68/-68/-68
f -67/-67/-67 -54/-54/-54 -55/-55/-55
f -87/-87/-87 -53/-53/-53 -52/-52/-52
f -87/-87/-87 -88/-88/-88 -53/-53/-53
f -88/-88/-88 -51/-51/-51 -53/-53/-53
f -88/-88/-88 -59/-59/-59 -51/-51/-51
f -59/-59/-59 -50/-50/-50 -51/-51/-51
f -59/-59/-59 -60/-60/-60 -50/-50/-50
f -60/-60/-60 -49/-49/-49 -50/-50/-50
f -60/-60/-60 -61/-61/-61 -49/-49/-49
f -61/-61/-61 -48/-48/-48 -49/-49/-49
f -61/-61/-61 -62/-62/-62 -48/-48/-48
f -62/-62/-62 -47/-47/-47 -48/-48/-48
f -62/-62/-62 -63/-63/-63 -47/-47/-47
f -63/-63/-63 -46/-46/-46 -47/-47/-47
f -63/-63/-63 -64/-64/-64 -46/-46/-46
f -64/-64/-64 -45/-45/-45 -46/-46/-46
f -64/-64/-64 -65/-65/-65 -45/-45/-45
f -65/-65/-65 -57/-57/-57 -45/-45/-45
f -65/-65/-65 -66/-66/-66 -57/-57/-57
f -42/-42/-42 -44/-44/-44 -43/-43/-43
f -43/-43/-43 -41/-41/-41 -42/-42/-42
f -40/-40/-40 -42/-42/-42 -41/-41/-41
f -41/-41/-41 -39/-39/-39 -40/-40/-40
f -38/-38/-38 -40/-40/-40 -39/-39/-39
f -39/-39/-39 -37/-37/-37 -38/-38/-38
f -36/-36/-36 -38/-38/-38 -37/-37/-37
f -37/-37/-37 -35/-35/-35 -36/-36/-36
f -34/-34/-34 -36/-36/-36 -35/-35/-35
f -35/-35/-35 -33/-33/-33 -34/-34/-34
f -32/-32/-32 -34/-34/-34 -33/-33/-33
f -33/-33/-33 -31/-31/-31 -32/-32/-32
f -30/-30/-30 -32/-32/-32 -31/-31/-31
f -31/-31/-31 -29/-29/-29 -30/-30/-30
f -28/-28/-28 -30/-30/-30 -29/-29/-29
f -29/-29/-29 -27/-27/-27 -28/-28/-28
f -26/-26/-26 -28/-28/-28 -27/-27/-27
f -27/-27/-27 -25/-25/-25 -26/-26/-26
f -24/-24/-24 -26/-26/-26 -25/-25/-25
f -25/-25/-25 -23/-23/-23 -24/-24/-24
f -20/-20/-20 -22/-22/-22 -21/-21/-21
f -20/-20/-20 -19/-19/-19 -22/-22/-22
f -20/-20/-20 -18/-18/-18 -19/-19/-19
f -20/-20/-20 -17/-17/-17 -18/-18/-18
f -20/-20/-20 -16/-16/-16 -17/-17/-17
f -20/-20/-20 -15/-15/-15 -16/-16/-16
f -20/-20/-20 -14/-14/-14 -15/-15/-15
f -20/-20/-20 -13/-13/-13 -14/-14/-14
f -20/-20/-20 -12/-12/-12 -13/-13/-13
f -20/-20/-20 -21/-21/-21 -12/-12/-12
f -9/-9/-9 -11/-11/-11 -10/-10/-10
f -9/-9/-9 -8/-8/-8 -11/-11/-11
f -9/-9/-9 -7/-7/-7 -8/-8/-8
f -9/-9/-9 -6/-6/-6 -7/-7/-7
f -9/-9/-9 -5/-5/-5 -6/-6/-6
f -9/-9/-9 -4/-4/-4 -5/-5/-5
f -9/-9/-9 -3/-3/-3 -4/-4/-4
f -9/-9/-9 -2/-2/-2 -3/-3/-3
f -9/-9/-9 -1/-1/-1 -2/-2/-2
f -9/-9/-9 -10/-10/-10 -1/-1/-1

